HIERARCHY
ROOT Hips
{
	OFFSET 0.00000 0.00000 0.00000
	CHANNELS 6 Xposition Yposition Zposition Zrotation Yrotation Xrotation 
	JOINT LHipJoint
	{
		OFFSET 0 0 0
		CHANNELS 3 Zrotation Yrotation Xrotation
		JOINT LeftUpLeg
		{
			OFFSET 1.62067 -1.77917 0.70989
			CHANNELS 3 Zrotation Yrotation Xrotation
			JOINT LeftLeg
			{
				OFFSET 2.34532 -6.44371 0.00000
				CHANNELS 3 Zrotation Yrotation Xrotation
				JOINT LeftFoot
				{
					OFFSET 2.74224 -7.53425 0.00000
					CHANNELS 3 Zrotation Yrotation Xrotation
					JOINT LeftToeBase
					{
						OFFSET 0.17032 -0.46794 2.08086
						CHANNELS 3 Zrotation Yrotation Xrotation
						End Site
						{
							OFFSET 0.00000 -0.00000 1.07476
						}
					}
				}
			}
		}
	}
	JOINT RHipJoint
	{
		OFFSET 0 0 0
		CHANNELS 3 Zrotation Yrotation Xrotation
		JOINT RightUpLeg
		{
			OFFSET -1.55811 -1.77917 0.70989
			CHANNELS 3 Zrotation Yrotation Xrotation
			JOINT RightLeg
			{
				OFFSET -2.33243 -6.40830 0.00000
				CHANNELS 3 Zrotation Yrotation Xrotation
				JOINT RightFoot
				{
					OFFSET -2.78798 -7.65993 0.00000
					CHANNELS 3 Zrotation Yrotation Xrotation
					JOINT RightToeBase
					{
						OFFSET -0.22707 -0.62388 2.04059
						CHANNELS 3 Zrotation Yrotation Xrotation
						End Site
						{
							OFFSET -0.00000 -0.00000 1.07030
						}
					}
				}
			}
		}
	}
	JOINT LowerBack
	{
		OFFSET 0 0 0
		CHANNELS 3 Zrotation Yrotation Xrotation
		JOINT Spine
		{
			OFFSET 0.02203 1.91565 0.07161
			CHANNELS 3 Zrotation Yrotation Xrotation
			JOINT Spine1
			{
				OFFSET 0.01740 1.90525 0.11636
				CHANNELS 3 Zrotation Yrotation Xrotation
				JOINT Neck
				{
					OFFSET 0 0 0
					CHANNELS 3 Zrotation Yrotation Xrotation
					JOINT Neck1
					{
						OFFSET -0.10841 1.83566 0.05067
						CHANNELS 3 Zrotation Yrotation Xrotation
						JOINT Head
						{
							OFFSET 0.06601 1.74760 -0.50505
							CHANNELS 3 Zrotation Yrotation Xrotation
							End Site
							{
								OFFSET 0.03102 1.85215 -0.17697
							}
						}
					}
				}
				JOINT LeftShoulder
				{
					OFFSET 0 0 0
					CHANNELS 3 Zrotation Yrotation Xrotation
					JOINT LeftArm
					{
						OFFSET 2.87059 1.35470 0.16111
						CHANNELS 3 Zrotation Yrotation Xrotation
						JOINT LeftForeArm
						{
							OFFSET 5.43592 -0.00000 0.00000
							CHANNELS 3 Zrotation Yrotation Xrotation
							JOINT LeftHand
							{
								OFFSET 3.25460 -0.00000 0.00000
								CHANNELS 3 Zrotation Yrotation Xrotation
								JOINT LeftFingerBase
								{
									OFFSET 0 0 0
									CHANNELS 3 Zrotation Yrotation Xrotation
									JOINT LeftHandIndex1
									{
										OFFSET 0.49824 -0.00000 0.00000
										CHANNELS 3 Zrotation Yrotation Xrotation
										End Site
										{
											OFFSET 0.40170 -0.00000 0.00000
										}
									}
								}
								JOINT LThumb
								{
									OFFSET 0 0 0
									CHANNELS 3 Zrotation Yrotation Xrotation
									End Site
									{
										OFFSET 0.40783 -0.00000 0.40783
									}
								}
							}
						}
					}
				}
				JOINT RightShoulder
				{
					OFFSET 0 0 0
					CHANNELS 3 Zrotation Yrotation Xrotation
					JOINT RightArm
					{
						OFFSET -2.86643 1.23488 0.45957
						CHANNELS 3 Zrotation Yrotation Xrotation
						JOINT RightForeArm
						{
							OFFSET -5.33830 -0.00000 0.00000
							CHANNELS 3 Zrotation Yrotation Xrotation
							JOINT RightHand
							{
								OFFSET -3.23148 -0.00000 0.00000
								CHANNELS 3 Zrotation Yrotation Xrotation
								JOINT RightFingerBase
								{
									OFFSET 0 0 0
									CHANNELS 3 Zrotation Yrotation Xrotation
									JOINT RightHandIndex1
									{
										OFFSET -0.46364 -0.00000 0.00000
										CHANNELS 3 Zrotation Yrotation Xrotation
										End Site
										{
											OFFSET -0.37380 -0.00000 0.00000
										}
									}
								}
								JOINT RThumb
								{
									OFFSET 0 0 0
									CHANNELS 3 Zrotation Yrotation Xrotation
									End Site
									{
										OFFSET -0.37951 -0.00000 0.37951
									}
								}
							}
						}
					}
				}
			}
		}
	}
}
MOTION
Frames: 12
Frame Time: 0.166667
0.00 0.00 0.00 0 0 0 0 0 0 -21 0 0 0 0 0 0 0 0 0 0 0 0 0 0 21 0 0 0 0 0 0 0 0 0 0 0 0 0 0 0 0 0 0 0 0 0 0 -16 0 0 21 0 0 11 0 0 0 -8 0 0 0 0 0 0 0 0 0 0 0 0 0 0 0 0 0 0 0 0 8 0 0 0 0 0 0 0 0 0 0 0 0 0 0 0 0 0
0.00 0.00 0.00 -4.1565 -20.2909 17.6951 0.0000 0.0000 0.0000 -22.9952 -7.3361 -24.7399 1.7137 8.2424 23.4527 0.4501 7.6404 -17.7112 0.4207 4.1629 11.5354 0.0000 0.0000 0.0000 -1.3707 2.2235 -12.7402 -0.8540 -5.8936 16.4761 -2.8551 -11.7084 -37.6543 -7.3539 -15.6228 50.2003 3.6269 4.4319 -5.2580 -0.3280 5.8509 -10.0170 -2.3960 2.6206 -7.1768 4.8301 7.4906 -9.3036 3.2088 8.8447 33.6718 1.6018 4.9301 12.8430 -0.0000 0.0000 0.0000 31.2260 -9.7346 -28.8576 29.6166 -40.5625 -11.1595 -0.0000 0.0000 -44.9142 33.2951 -23.2746 -14.5479 -7.1250 0.0000 -0.0000 2.5415 2.7720 -2.4180 -0.0000 0.0000 0.0000 -7.2775 13.5832 -21.1136 -136.7315 49.8915 -99.0941 0.0000 -0.0000 -56.1273 -10.5522 -45.4655 7.5639 7.1250 -0.0000 -0.0000 44.8519 -71.4442 -30.0079
0.00 0.00 0.00 -5.7456 -23.1108 17.5963 0.0000 0.0000 0.0000 -22.3762 -6.7568 -25.7228 2.0379 8.9446 25.6222 0.4773 8.9874 -19.2809 0.2540 3.2426 8.9550 0.0000 0.0000 0.0000 0.1004 -1.3066 -21.1620 -1.6435 -8.0802 22.9580 0.1820 -25.0573 -34.1647 -5.3397 -13.7565 42.2705 4.0957 4.8170 -4.1809 -0.0495 6.4189 -9.3171 -2.4189 2.8943 -6.9739 1.8181 5.3483 -11.5938 3.8782 6.0504 37.6884 2.2439 3.3396 14.9618 0.0000 0.0000 0.0000 28.0330 -11.9083 -32.6718 39.2273 -47.6054 -17.8665 -0.0000 0.0000 -50.1424 31.4686 -23.0471 -13.4745 -7.1250 0.0000 -0.0000 1.4668 3.4770 -1.3756 0.0000 0.0000 0.0000 -4.9507 18.1098 -18.1538 -136.6519 49.9330 -99.0333 0.0000 -0.0000 -54.1855 -10.0256 -43.8069 6.9770 7.1250 -0.0000 -0.0000 41.7570 -70.1387 -26.5869
0.00 0.00 0.00 -5.9482 -24.2129 17.2410 0.0000 0.0000 0.0000 -22.8441 -5.5570 -25.6255 2.0967 9.0647 25.9978 0.6057 8.4487 -20.1257 0.3959 4.0399 11.1890 0.0000 0.0000 0.0000 0.2324 -2.3599 -24.3994 -2.0104 -8.8878 25.4450 4.8407 -35.7310 -19.7870 -3.1590 -10.9482 32.1053 3.9364 4.9409 -4.0100 0.0292 6.5893 -9.0611 -2.2526 3.0004 -6.8061 1.8401 4.9659 -12.3344 3.6568 5.5129 39.3917 2.1747 3.0501 16.0166 -0.0000 -0.0000 0.0000 26.8285 -12.0914 -31.7258 43.1244 -49.8158 -20.7957 -0.0000 0.0000 -53.1965 33.4863 -24.6878 -15.4459 -7.1250 0.0000 -0.0000 2.4047 1.1396 -2.3584 -0.0000 -0.0000 0.0000 -4.0008 18.9196 -16.7278 -136.7701 49.8713 -99.1236 0.0000 -0.0000 -54.5230 -9.5175 -45.3162 6.7978 7.1250 -0.0000 -0.0000 45.4967 -70.9891 -30.0708
0.00 0.00 0.00 -6.4814 -25.1940 17.3021 0.0000 0.0000 0.0000 -22.7277 -4.7109 -26.4161 2.2631 9.3939 27.0353 0.6247 8.8876 -20.7080 0.2450 3.1851 8.7944 0.0000 0.0000 0.0000 1.4093 -2.7131 -29.1705 -2.4093 -9.6710 27.9178 3.6872 -31.8157 -16.7524 -3.5391 -11.5204 34.0557 4.0732 4.9686 -4.1567 0.0860 6.6107 -8.7928 -2.2380 3.0180 -6.4219 2.1871 4.6190 -10.9603 2.7530 5.2349 39.1021 1.6125 2.8570 15.5937 -0.0000 0.0000 0.0000 25.0911 -13.0030 -30.8785 49.0940 -52.6235 -25.4524 -0.0000 0.0000 -54.8016 37.1030 -27.2179 -19.0830 -7.1250 0.0000 -0.0000 4.0150 -2.7656 -4.2142 -0.0000 0.0000 0.0000 -2.3652 20.0084 -15.2933 -137.2014 49.6433 -99.4528 0.0000 -0.0000 -53.8782 -7.6543 -45.4156 5.4676 7.1250 -0.0000 -0.0000 47.4664 -70.4178 -30.9968
0.00 0.00 0.00 -4.7962 -21.6822 12.8476 0.0000 0.0000 0.0000 -24.5270 -5.2144 -23.5275 2.4132 9.6784 27.9414 0.6280 7.3201 -19.3898 0.3449 3.7736 10.4407 0.0000 0.0000 0.0000 3.9890 3.4982 -44.9478 -3.7313 -11.7941 35.0073 0.2578 -29.2203 19.2158 -0.0654 -1.6504 4.5405 2.3971 2.5900 -1.5252 0.3900 3.5021 -6.1963 -1.0426 1.6256 -5.4416 -0.0452 2.4028 -10.6638 1.2874 2.9383 40.6802 1.0286 1.2940 16.3383 0.0000 -0.0000 0.0000 13.1632 -19.7846 -23.4026 69.8680 -58.4118 -42.6581 -0.0000 0.0000 -64.6294 35.2534 -33.4527 -21.2875 -7.1250 0.0000 -0.0000 1.5371 -8.9833 -1.7589 0.0000 -0.0000 0.0000 5.2016 21.9809 -5.3424 -137.4024 49.5357 -99.6059 0.0000 -0.0000 -49.7005 -5.0608 -42.4370 3.4198 7.1250 -0.0000 -0.0000 44.0286 -67.5859 -25.8326
0.00 0.00 0.00 -2.6675 -19.3801 10.2571 0.0000 0.0000 0.0000 -26.4845 -4.6855 -23.9539 2.8666 10.4759 30.5319 0.8315 4.5207 -19.4404 0.3969 4.0449 11.2029 0.0000 0.0000 0.0000 7.8632 10.1572 -51.3132 -3.3623 -11.2596 33.1606 -2.5306 -20.6973 30.1491 -0.0877 -1.9100 5.2571 1.0950 1.6245 -0.0736 -0.1646 2.1815 -4.0001 -0.8560 1.0431 -4.0275 -0.5215 1.6715 -10.9678 0.4379 2.2688 41.7527 0.6432 0.7981 17.0274 -0.0000 -0.0000 0.0000 -1.2170 -26.9794 -11.4305 89.4752 -59.9990 -59.5455 -0.0000 0.0000 -65.4019 27.7927 -24.5596 -12.3569 -7.1250 0.0000 -0.0000 -1.0063 2.6636 0.9586 -0.0000 -0.0000 0.0000 17.9430 25.8681 7.8888 -133.1071 51.6628 -96.2857 0.0000 -0.0000 -46.0601 -7.2661 -41.5479 4.8337 7.1250 -0.0000 -0.0000 40.3159 -67.6308 -23.4034
0.00 0.00 0.00 -1.5186 -15.4461 8.6073 0.0000 0.0000 0.0000 -27.0992 -5.8851 -29.5395 5.4145 13.8359 42.5839 1.4397 0.0925 -22.7354 0.7569 5.5564 15.5026 0.0000 0.0000 0.0000 10.1704 14.6826 -54.2379 -2.9071 -10.5432 30.7543 -3.9373 -13.4532 36.0239 -0.0733 -1.7463 4.8051 -0.3093 0.2700 2.9219 -0.8370 0.3225 -1.3771 -0.7045 0.1579 -3.0499 -0.7703 0.6086 -11.5974 -0.3981 1.0416 40.7451 0.1045 0.1452 16.6439 0.0000 -0.0000 0.0000 -37.8183 -28.3968 21.1263 99.5430 -59.6531 -68.2548 -0.0000 0.0000 -58.3330 25.3371 -25.9442 -11.7033 -7.1250 0.0000 -0.0000 -2.6859 1.7130 2.6073 0.0000 -0.0000 0.0000 42.8853 21.8050 35.5092 -121.3263 55.9460 -86.7601 0.0000 -0.0000 -33.8064 -6.9312 -41.7060 4.6239 7.1250 -0.0000 -0.0000 40.9200 -67.6431 -23.8109
0.00 0.00 0.00 -2.6637 -14.4623 11.2075 0.0000 0.0000 0.0000 -24.6850 -9.6658 -33.9861 6.4605 14.8602 46.8032 1.5637 0.6835 -23.9048 0.2994 3.5183 9.7251 0.0000 0.0000 0.0000 7.6021 19.0798 -57.4515 -2.9880 -10.6756 31.1935 -4.3465 -10.0619 37.9858 -0.0702 -1.7091 4.7023 0.9900 0.2670 4.3557 -0.4461 0.3902 1.0521 -1.0340 0.1909 -1.3516 -1.3572 0.3043 -12.6610 -0.6538 0.9018 38.9986 0.0864 -0.0016 15.9781 0.0000 -0.0000 0.0000 -53.3815 -15.7742 44.3595 89.5432 -59.9992 -59.6044 -0.0000 0.0000 -52.2397 24.3428 -25.0358 -10.8385 -7.1250 0.0000 -0.0000 -3.1679 2.8742 3.0097 0.0000 -0.0000 0.0000 53.5984 5.5792 45.7931 -110.6764 58.3214 -77.8054 0.0000 -0.0000 -26.6428 -5.5928 -41.7262 3.7290 7.1250 -0.0000 -0.0000 42.2780 -67.2470 -24.3465
0.00 0.00 0.00 -2.6504 -8.7375 16.1804 0.0000 0.0000 0.0000 -21.4032 -15.8567 -42.1473 7.7748 15.9511 51.7475 1.5563 -0.7145 -23.3833 0.3932 4.0265 11.1513 0.0000 0.0000 0.0000 2.2284 24.0266 -65.4307 -3.5063 -11.4728 33.8914 -4.1547 -12.4392 37.0303 -0.1368 -2.3843 6.5689 1.7141 -0.6260 7.4767 -0.1727 -0.7048 1.4420 -1.0728 -0.3656 -2.7240 -0.8567 -0.0325 -14.3073 -1.5706 0.6926 38.9893 -0.4336 -0.1220 16.3909 -0.0000 0.0000 0.0000 -51.7455 -3.0359 62.5390 71.4327 -58.6564 -43.9928 -0.0000 0.0000 -43.9419 23.4145 -26.8808 -11.0779 -7.1250 0.0000 -0.0000 -3.9621 1.1245 3.8930 -0.0000 0.0000 0.0000 58.2147 -14.1029 50.7665 -94.3013 59.9300 -63.7242 0.0000 -0.0000 -17.5922 -11.1631 -40.7927 7.3463 7.1250 -0.0000 -0.0000 35.0377 -68.2662 -20.5119
0.00 0.00 0.00 -3.1757 -8.1693 19.9345 0.0000 0.0000 0.0000 -19.1571 -18.4689 -48.1681 8.5644 16.5191 54.5712 1.6045 0.0411 -23.9887 0.3987 4.0541 11.2290 0.0000 0.0000 0.0000 2.0848 22.9246 -71.1264 -3.8189 -11.9155 35.4337 -4.1756 -11.0060 37.1485 -0.0288 -1.0958 3.0126 3.2110 -0.4055 9.1484 0.3497 -0.2183 1.6320 -1.4177 -0.1434 -3.4447 -1.7803 -0.6212 -15.0785 -1.3679 0.0609 38.3833 -0.2825 -0.4714 16.2641 -0.0000 -0.0000 0.0000 -46.9934 5.8221 66.3809 54.9168 -54.7958 -30.1480 -0.0000 0.0000 -36.4821 23.2041 -28.1544 -11.4352 -7.1250 0.0000 -0.0000 -4.2553 -0.1577 4.2788 -0.0000 -0.0000 0.0000 52.6364 -23.8957 56.2587 -75.3612 59.1746 -47.3576 0.0000 -0.0000 -14.3858 -15.4654 -38.9548 9.8677 7.1250 -0.0000 -0.0000 27.4775 -68.0973 -15.6961
0.00 0.00 0.00 -3.9124 -7.3988 22.1317 0.0000 0.0000 0.0000 -18.1329 -16.5130 -54.3764 9.8630 17.3321 59.0294 1.7656 -3.5451 -24.2464 0.3978 4.0495 11.2161 0.0000 0.0000 0.0000 3.7183 20.7956 -75.8921 -4.2749 -12.5175 37.5883 -4.2832 -9.6460 37.7150 -0.0663 -1.6611 4.5699 4.1177 -0.7338 12.4154 0.7831 -0.4495 3.7745 -1.4381 -0.2334 -3.0225 -1.1548 -1.0323 -15.4119 -2.3509 -0.3835 37.0320 -0.8764 -0.6844 15.6511 -0.0000 0.0000 0.0000 -30.3069 13.2440 77.1936 35.6882 -45.2973 -15.3004 -0.0000 0.0000 -28.8418 21.9400 -29.6278 -11.2622 -7.1250 0.0000 -0.0000 -5.1924 -1.4190 5.3411 -0.0000 0.0000 0.0000 38.2064 -27.8523 70.4450 -45.3684 50.9477 -22.5244 0.0000 -0.0000 -8.6844 -13.1501 -40.1316 8.5635 7.1250 -0.0000 -0.0000 31.8333 -68.3591 -18.5502
